<svg width="62" height="31" viewBox="0 0 62 31" fill="none" xmlns="http://www.w3.org/2000/svg">
<rect x="2" y="2" width="58" height="27" rx="2" stroke="url(#paint0_linear)" stroke-width="4"/>
<path d="M27 18H59M29.9474 17.2222V12.5556M33.3158 17.2222V15.6667M36.6842 17.2222V13.3333M40.0526 17.2222V14.1111M43.4211 17.2222V12.5556M46.7895 17.2222V11M50.1579 17.2222V14.1111M53.5263 17.2222V12.5556M56.8947 17.2222V13.3333" stroke="url(#paint1_linear)" stroke-width="2" stroke-linecap="round"/>
<path d="M27 18V4" stroke="url(#paint2_linear)" stroke-width="2"/>
<path d="M9.08163 10.849L7.85714 10.8653V13.6082H9.47347C9.82177 13.6082 10.0449 13.4177 10.1429 13.0367H10.4204C10.4204 13.7333 10.3986 14.3755 10.3551 14.9633H10.0122C9.92517 14.6912 9.8381 14.517 9.75102 14.4408C9.66395 14.3646 9.51701 14.3265 9.3102 14.3265H7.85714V16.5796C7.85714 16.8082 7.88435 17.0313 7.93878 17.249C8.11292 17.2925 8.3034 17.3143 8.5102 17.3143H9V18.0816L7.26939 18L5.65306 18.0653L5.53878 18.0816V17.3143H6.01224C6.24082 17.3143 6.43129 17.2925 6.58367 17.249C6.6381 17.1075 6.66531 16.917 6.66531 16.6776V11.551C6.66531 11.2898 6.6381 11.0884 6.58367 10.9469C6.50748 10.9143 6.42585 10.898 6.33878 10.898H5.42449V10.3102C6.40408 10.1905 7.66667 10.1306 9.21224 10.1306H11.6286C11.6721 10.3918 11.7048 10.6204 11.7265 10.8163C11.7483 11.0122 11.7701 11.1918 11.7918 11.3551C11.8245 11.5075 11.8408 11.6381 11.8408 11.7469L11.0408 11.7633C11.0408 11.5456 10.9918 11.2898 10.8939 10.9959C10.698 10.8871 10.2517 10.8327 9.5551 10.8327L9.08163 10.849ZM23.937 18.0816C23.556 18.0272 22.9846 18 22.2227 18C21.4717 18 20.9057 18.0272 20.5247 18.0816L20.4594 17.3143H20.9003C21.1615 17.3143 21.3193 17.2871 21.3737 17.2327C21.439 17.1782 21.4717 17.0857 21.4717 16.9551C21.4717 16.8136 21.4662 16.634 21.4554 16.4163C21.4554 16.1878 21.4445 15.9374 21.4227 15.6653C21.4009 15.3823 21.3683 14.9741 21.3247 14.4408C21.2921 13.8966 21.2213 12.9061 21.1125 11.4694C19.6758 15.4857 18.8866 17.6626 18.7452 18H17.7166C17.4989 17.4231 17.2377 16.6939 16.9329 15.8122C16.639 14.9197 16.3941 14.1959 16.1982 13.6408C16.0132 13.0748 15.7792 12.3673 15.4962 11.5184C15.2676 14.9469 15.1533 16.7374 15.1533 16.8898C15.1533 17.0313 15.1914 17.1401 15.2676 17.2163C15.3438 17.2816 15.4962 17.3143 15.7247 17.3143H16.1492L16.1003 18.0816C15.7193 18.0272 15.1588 18 14.4186 18C13.6785 18 13.1179 18.0272 12.737 18.0816L12.8676 17.3143H13.4064C13.6132 17.3143 13.8037 17.2925 13.9778 17.249C14.1193 16.966 14.2009 16.7429 14.2227 16.5796C14.2445 16.4054 14.2717 16.1769 14.3043 15.8939C14.337 15.6 14.3642 15.2898 14.386 14.9633C14.4186 14.6367 14.4458 14.3048 14.4676 13.9673C14.4894 13.6299 14.5111 13.3143 14.5329 13.0204C14.5656 12.7156 14.5873 12.4435 14.5982 12.2041C14.6091 11.9646 14.62 11.7796 14.6309 11.649C14.6526 11.5075 14.6635 11.3932 14.6635 11.3061C14.6635 11.219 14.6526 11.1483 14.6309 11.0939C14.62 11.0286 14.6091 10.9687 14.5982 10.9143C14.4458 10.849 14.2499 10.8163 14.0105 10.8163H13.439V10.2286C13.5479 10.2177 13.6894 10.2014 13.8635 10.1796C14.0486 10.1469 14.3642 10.1306 14.8105 10.1306C15.2676 10.1306 15.7084 10.1633 16.1329 10.2286C16.503 11.1211 16.8948 12.2204 17.3084 13.5265C17.7329 14.8327 18.0159 15.6925 18.1574 16.1061C18.3098 16.5197 18.386 16.7429 18.386 16.7755C18.8866 15.2299 19.3656 13.8259 19.8227 12.5633C20.2907 11.3007 20.5737 10.5224 20.6717 10.2286C21.1288 10.1633 21.537 10.1306 21.8962 10.1306L23.2186 10.2122L23.2676 10.2286L23.3166 10.8163H22.8431C22.5601 10.8163 22.3696 10.8544 22.2717 10.9306C22.2608 10.9959 22.2499 11.083 22.239 11.1918L22.6635 16.6122C22.6744 16.819 22.7234 17.0313 22.8105 17.249C23.0281 17.2925 23.2676 17.3143 23.5288 17.3143H23.8227L23.937 18.0816Z" fill="white"/>
<defs>
<linearGradient id="paint0_linear" x1="31" y1="0" x2="31" y2="31" gradientUnits="userSpaceOnUse">
<stop stop-color="#D3D3D3"/>
<stop offset="1" stop-color="white"/>
</linearGradient>
<linearGradient id="paint1_linear" x1="43" y1="11" x2="43" y2="18" gradientUnits="userSpaceOnUse">
<stop stop-color="#D3D3D3"/>
<stop offset="1" stop-color="white"/>
</linearGradient>
<linearGradient id="paint2_linear" x1="27.5" y1="4" x2="27.5" y2="18" gradientUnits="userSpaceOnUse">
<stop stop-color="#D3D3D3"/>
<stop offset="1" stop-color="white"/>
</linearGradient>
</defs>
</svg>
